<svg version="1.1" id="Icons" xmlns="http://www.w3.org/2000/svg" xmlns:xlink="http://www.w3.org/1999/xlink" viewBox="0 0 32.00 32.00" xml:space="preserve" width="159px" height="159px" fill="#420b0b" stroke="#420b0b" transform="rotate(0)matrix(-1, 0, 0, 1, 0, 0)"><g id="SVGRepo_bgCarrier" stroke-width="0"></g><g id="SVGRepo_tracerCarrier" stroke-linecap="round" stroke-linejoin="round"></g><g id="SVGRepo_iconCarrier"> <style type="text/css"> .st0{fill:none;stroke:#e2725b;stroke-width:1.088;stroke-linecap:round;stroke-linejoin:round;stroke-miterlimit:10;} .st1{fill:none;stroke:#e2725b;stroke-width:1.088;stroke-linecap:round;stroke-linejoin:round;} .st2{fill:none;stroke:#e2725b;stroke-width:1.088;stroke-linecap:round;stroke-linejoin:round;stroke-dasharray:6,6;} .st3{fill:none;stroke:#e2725b;stroke-width:1.088;stroke-linecap:round;stroke-linejoin:round;stroke-dasharray:4,4;} .st4{fill:none;stroke:#e2725b;stroke-width:1.088;stroke-linecap:round;} .st5{fill:none;stroke:#e2725b;stroke-width:1.088;stroke-linecap:round;stroke-dasharray:3.1081,3.1081;} .st6{fill:none;stroke:#e2725b;stroke-width:1.088;stroke-linecap:round;stroke-linejoin:round;stroke-miterlimit:10;stroke-dasharray:4,3;} </style> <path class="st0" d="M27,16V8.8c1.2-0.4,2-1.5,2-2.8c0-1.7-1.3-3-3-3c-1.3,0-2.4,0.8-2.8,2H8.8C8.4,3.8,7.3,3,6,3C4.3,3,3,4.3,3,6 c0,1.3,0.8,2.4,2,2.8v14.4c-1.2,0.4-2,1.5-2,2.8c0,1.7,1.3,3,3,3c1.3,0,2.4-0.8,2.8-2H18"></path> <polyline class="st0" points="15,23 9,23 9,9 23,9 23,15 "></polyline> <circle class="st0" cx="13" cy="13" r="1"></circle> <polyline class="st0" points="9,20 16,16 17,17 "></polyline> <circle class="st0" cx="23" cy="22" r="7"></circle> <line class="st0" x1="23" y1="29" x2="23" y2="19"></line> <polyline class="st0" points="27,23 23,19 19,23 "></polyline> </g></svg>